# xmcd
#
# Track frame offsets:
#	150
#	16950
#	33792
#	59662
#	83475
#	103387
#	126295
#	145057
#	164965
#	185897
#	198277
#	216432
#	231460
#
# Disc length: 3396 seconds
#
# Revision: 2
# Processed by: cddbd v1.4PL0 Copyright (c) Steve Scherf et al.
# Submitted via: audiograbber 1.80.04
#
DISCID=c70d420d
DTITLE=The Gales Bros. - Left Hand Brand
DYEAR=1996
DGENRE=Blues
TTITLE0=Fight The Power
TTITLE1=Hand Me Down
TTITLE2=Somethin's Got A Hold On Me
TTITLE3=House Of Blues
TTITLE4=Worried Man
TTITLE5=You Don't Love Me
TTITLE6=Talking In Your Sleep
TTITLE7=Rockin' Horse Ride
TTITLE8=Talk Is Cheap
TTITLE9=Somebody
TTITLE10=Sign Of The Times
TTITLE11=This Deck Is Stacked
TTITLE12=Guitar Man
EXTD=
EXTT0=
EXTT1=
EXTT2=
EXTT3=
EXTT4=
EXTT5=
EXTT6=
EXTT7=
EXTT8=
EXTT9=
EXTT10=
EXTT11=
EXTT12=
PLAYORDER=
